<?xml version="1.0" encoding="UTF-8"?>
<!DOCTYPE svg PUBLIC "-//W3C//DTD SVG 1.1//EN" "http://www.w3.org/Graphics/SVG/1.1/DTD/svg11.dtd">
<!-- Creator: CorelDRAW 2020 (64-Bit) -->
<svg xmlns="http://www.w3.org/2000/svg" xml:space="preserve" width="50mm" height="50mm" version="1.1" style="shape-rendering:geometricPrecision; text-rendering:geometricPrecision; image-rendering:optimizeQuality; fill-rule:evenodd; clip-rule:evenodd"
viewBox="0 0 5000 5000"
 xmlns:xlink="http://www.w3.org/1999/xlink"
 xmlns:xodm="http://www.corel.com/coreldraw/odm/2003"
 data-name="Layer 2">
 <defs>
  <style type="text/css">
   <![CDATA[
    .fil0 {fill:black;fill-rule:nonzero}
   ]]>
  </style>
 </defs>
 <g id="Capa_x0020_1">
  <metadata id="CorelCorpID_0Corel-Layer"/>
  <g id="Novo_x0020_Logo.svg">
   <g id="Layer_2-2" data-name="Layer 2">
    <g>
     <g>
      <polygon class="fil0" points="2169.53,745.08 2170.77,745.08 3077.86,1833.65 3268.79,1674.52 2287.17,496.56 1921,496.56 1921,1915.97 2169.53,1915.97 "/>
      <rect class="fil0" x="3971.66" y="496.04" width="248.53" height="1231.05"/>
      <rect class="fil0" x="1918.87" y="3108.06" width="248.53" height="379.04"/>
      <rect class="fil0" x="1535.95" y="2857.35" width="851.2" height="180.23"/>
      <rect class="fil0" x="1535.95" y="2570.88" width="851.2" height="180.23"/>
      <rect class="fil0" x="4402.81" y="2857.35" width="416.82" height="180.23"/>
      <path class="fil0" d="M4571.05 2570.83c-20.94,66.22 -55.86,127.53 -103.31,180.23l351.88 0 0 -180.23 -248.53 0 -0.04 0z"/>
      <path class="fil0" d="M1815.9 2343.79l802.34 0c-4.52,25.37 -6.87,51.33 -6.87,77.69 0,116.61 45.41,226.23 127.87,308.69 82.46,82.46 192.08,127.87 308.69,127.87 116.62,0 226.23,-45.41 308.65,-127.87 82.46,-82.46 127.87,-192.08 127.87,-308.69 0,-26.4 -2.35,-52.45 -6.91,-77.9l193.36 0c-4.56,25.46 -6.91,51.5 -6.91,77.9 0,116.61 45.41,226.23 127.87,308.69 82.46,82.47 192.08,127.87 308.65,127.87 116.57,0 226.23,-45.4 308.69,-127.87 82.46,-82.46 127.87,-192.07 127.87,-308.69 0,-116.61 -45.41,-226.23 -127.87,-308.64 -82.46,-82.47 -192.08,-127.87 -308.69,-127.87 -116.62,0 -226.23,45.4 -308.65,127.87 -15.86,15.86 -30.4,32.74 -43.45,50.52l-348.34 -0.01c-13.05,-17.73 -27.58,-34.66 -43.44,-50.52 -82.47,-82.46 -192.08,-127.87 -308.65,-127.87 -116.57,0 -226.23,45.41 -308.69,127.87 -15.95,15.94 -30.53,32.91 -43.62,50.78l-980.43 0 -166.67 271 211.74 -0.17 55.68 -90.56 -0.09 -0.09zm2284.61 -178.65c141.34,0 256.29,114.99 256.29,256.29 0,141.3 -114.95,256.29 -256.29,256.29 -141.34,0 -256.29,-114.95 -256.29,-256.29 0,-141.34 114.99,-256.29 256.29,-256.29zm-1296.89 178.65l1.97 0 0 -5.88c34.71,-100.46 130.21,-172.77 242.3,-172.77 141.34,0 256.29,114.99 256.29,256.29 0,141.3 -114.95,256.29 -256.29,256.29 -141.34,0 -256.29,-114.95 -256.29,-256.29 0,-27.07 4.23,-53.17 12.03,-77.68l-0.01 0.04z"/>
      <polygon class="fil0" points="3581.87,3027.09 3740.44,2752.38 3423.31,2752.38 "/>
      <path class="fil0" d="M4413.76 3757.46l-0.21 0 -193.36 0.13 0 -651.41 -248.53 0 0 1008.06c0,84.42 -68.69,153.11 -153.11,153.11l-81.91 0 0 -125.22c0,-102.8 -40.03,-199.41 -112.73,-272.07 -72.65,-72.65 -169.22,-112.64 -271.98,-112.64l-0.12 -0.01 -929.91 0.3 0.09 248.53 929.9 -0.3 0 0.01c36.38,0 70.57,14.15 96.28,39.86 25.7,25.71 39.91,59.91 39.91,96.32l0 125.23 -2420.07 -0.01c-84.42,0 -153.11,-68.68 -153.11,-153.11l0 -382.83 1.71 0c0,0 -1.71,-63.15 -1.71,-63.15l0 -70.64c0,-271.04 220.52,-491.56 491.56,-491.56l4.78 0 0 -248.53 -4.78 -0.01c-99.86,0 -196.77,19.57 -288.09,58.2 -88.13,37.27 -167.27,90.65 -235.19,158.57 -39.78,39.78 -74.53,83.44 -103.99,130.47l-119.21 0 0 -465.34c0,-27.55 22.38,-49.93 49.93,-49.93l418.81 0c137.38,0 249.13,-111.75 249.13,-249.12l0 -8.57c0,-137.38 -111.75,-249.13 -249.13,-249.13l-434.93 0c-140.41,0 -272.41,54.66 -371.71,153.96 -99.3,99.26 -153.96,231.3 -153.96,371.71l0 584.38c0,116.56 45.41,226.14 127.82,308.6 82.34,82.33 191.78,127.69 308.18,127.82l62.25 0.47 0 384.63c0,221.46 180.18,401.63 401.63,401.63l881.83 0.01 0 0.13 64.59 0c0,0 594.02,0.21 594.02,0.21l1128.2 0c0,0 0,0 0,0l1061.83 0 0 -374.01c0,-102.8 -40.04,-199.45 -112.77,-272.11 -72.66,-72.61 -169.23,-112.6 -271.94,-112.6l0 -0.04zm-3809.21 -227.55c-130.82,0 -237.24,-106.42 -237.24,-237.24l0 -584.37c0,-180.01 146.46,-326.47 326.47,-326.47l434.86 -0.01c27.55,0 49.93,22.39 49.93,49.93l0 8.57c0,27.55 -22.38,49.93 -49.93,49.93l-418.82 0c-137.37,0 -249.12,111.75 -249.12,249.12l0 528.45c0,75.04 61.05,136.09 136.09,136.09l95.12 0.01c-11.21,41.31 -18.72,83.56 -22.6,126.46l-64.12 -0.47 -0.73 0 0.09 0zm3945.39 737.69l-360.23 0c19.61,-47.28 30.48,-99.13 30.48,-153.44l0 -108.09 193.53 -0.12 0.08 0c36.37,0 70.57,14.15 96.27,39.86 25.76,25.71 39.91,59.95 39.91,96.32l0 125.48 -0.04 -0.01z"/>
     </g>
    </g>
   </g>
  </g>
 </g>
</svg>
