<?xml version="1.0" encoding="UTF-8"?>
<svg id="Layer_2" data-name="Layer 2" xmlns="http://www.w3.org/2000/svg" viewBox="0 0 2880.93 942.87">
  <g id="Layer_2-2" data-name="Layer 2">
    <g>
      <g>
        <path d="M1469.39,794.09h-89.1V330.79h85.92l191.56,295.93V330.79h88.78v463.3h-84l-193.15-304.84v304.84Z"/>
        <path d="M1800.64,617.49c0-24.61,4.5-47.99,13.52-70.16,9.01-22.16,22.12-41.84,39.3-59.03s37.44-31.13,59.5-40.57c22.06-9.44,44.97-14.16,68.73-14.16,25.24,0,48.53,4.19,69.85,12.57,21.32,8.38,40.89,20.95,58.71,37.71,18.24,17.61,32.35,37.92,42.32,60.94,9.97,23.02,14.96,46.62,14.96,70.8,0,26.73-4.35,51.13-13.05,73.19-8.7,22.07-21.75,42-39.14,59.82-17.4,18.03-37.23,31.66-59.5,40.89-22.27,9.23-46.46,13.84-72.55,13.84s-50.28-4.67-71.91-14c-21.64-9.33-41.37-23.33-59.19-42-16.97-18.24-29.81-38.34-38.5-60.3-8.7-21.96-13.05-45.13-13.05-69.53Zm84.01-.64c0,32.46,8.91,58.18,26.73,77.16,17.82,18.99,42,28.48,72.55,28.48s54.14-9.71,72.07-29.12c17.92-19.41,26.89-45.55,26.89-78.44,0-29.48-9.39-53.72-28.16-72.71-18.77-18.98-42.38-28.48-70.8-28.48s-53.14,9.6-71.6,28.8c-18.46,19.2-27.68,43.97-27.68,74.3Z"/>
        <path d="M2370.85,794.09h-63.96l-133.01-350.02h86.87l81.46,232.6,84-232.6h84.64l-140.01,350.02Z"/>
        <path d="M2514.04,617.49c0-24.61,4.5-47.99,13.52-70.16,9.01-22.16,22.12-41.84,39.3-59.03s37.44-31.13,59.5-40.57c22.06-9.44,44.97-14.16,68.73-14.16,25.24,0,48.53,4.19,69.85,12.57,21.32,8.38,40.89,20.95,58.71,37.71,18.24,17.61,32.35,37.92,42.32,60.94,9.97,23.02,14.96,46.62,14.96,70.8,0,26.73-4.35,51.13-13.05,73.19-8.7,22.07-21.75,42-39.14,59.82-17.4,18.03-37.23,31.66-59.5,40.89-22.27,9.23-46.46,13.84-72.55,13.84s-50.28-4.67-71.91-14c-21.64-9.33-41.37-23.33-59.19-42-16.97-18.24-29.81-38.34-38.5-60.3-8.7-21.96-13.05-45.13-13.05-69.53Zm84.01-.64c0,32.46,8.91,58.18,26.73,77.16,17.82,18.99,42,28.48,72.55,28.48s54.14-9.71,72.07-29.12c17.92-19.41,26.89-45.55,26.89-78.44,0-29.48-9.39-53.72-28.16-72.71-18.77-18.98-42.38-28.48-70.8-28.48s-53.14,9.6-71.6,28.8c-18.46,19.2-27.68,43.97-27.68,74.3Z"/>
      </g>
      <g>
        <polygon points="469.41 58.41 469.7 58.41 682.45 313.72 727.23 276.4 497 .12 411.12 .12 411.12 333.03 469.41 333.03 469.41 58.41"/>
        <rect x="892.08" width="58.29" height="288.73"/>
        <rect x="410.62" y="612.62" width="58.29" height="88.9"/>
        <rect x="320.81" y="553.82" width="199.64" height="42.27"/>
        <rect x="320.81" y="486.63" width="199.64" height="42.27"/>
        <rect x="993.2" y="553.82" width="97.76" height="42.27"/>
        <path d="M1032.66,486.62c-4.91,15.53-13.1,29.91-24.23,42.27h82.53v-42.27h-58.29Z"/>
        <path d="M386.47,433.37h188.18c-1.06,5.95-1.61,12.04-1.61,18.22,0,27.35,10.65,53.06,29.99,72.4,19.34,19.34,45.05,29.99,72.4,29.99s53.06-10.65,72.39-29.99c19.34-19.34,29.99-45.05,29.99-72.4,0-6.19-.55-12.3-1.62-18.27h45.35c-1.07,5.97-1.62,12.08-1.62,18.27,0,27.35,10.65,53.06,29.99,72.4,19.34,19.34,45.05,29.99,72.39,29.99s53.06-10.65,72.4-29.99c19.34-19.34,29.99-45.05,29.99-72.4s-10.65-53.06-29.99-72.39c-19.34-19.34-45.05-29.99-72.4-29.99s-53.06,10.65-72.39,29.99c-3.72,3.72-7.13,7.68-10.19,11.85h-81.7c-3.06-4.16-6.47-8.13-10.19-11.85-19.34-19.34-45.05-29.99-72.39-29.99s-53.06,10.65-72.4,29.99c-3.74,3.74-7.16,7.72-10.23,11.91h-229.95l-39.09,63.56,49.66-.04,13.06-21.24Zm535.83-41.9c33.15,0,60.11,26.97,60.11,60.11s-26.96,60.11-60.11,60.11-60.11-26.96-60.11-60.11,26.97-60.11,60.11-60.11Zm-304.17,41.9h.46v-1.38c8.14-23.56,30.54-40.52,56.83-40.52,33.15,0,60.11,26.97,60.11,60.11s-26.96,60.11-60.11,60.11-60.11-26.96-60.11-60.11c0-6.35,.99-12.47,2.82-18.22Z"/>
        <polygon points="800.66 593.63 837.85 529.2 763.47 529.2 800.66 593.63"/>
        <path d="M995.77,764.93h-.05l-45.35,.03v-152.78h-58.29v236.43c0,19.8-16.11,35.91-35.91,35.91h-19.21v-29.37c0-24.11-9.39-46.77-26.44-63.81-17.04-17.04-39.69-26.42-63.79-26.42h-.03l-218.1,.07,.02,58.29,218.1-.07h0c8.53,0,16.55,3.32,22.58,9.35,6.03,6.03,9.36,14.05,9.36,22.59v29.37H211.06c-19.8,0-35.91-16.11-35.91-35.91v-89.79h.4s-.4-14.81-.4-14.81v-16.57c0-63.57,51.72-115.29,115.29-115.29h1.12v-58.29h-1.12c-23.42,0-46.15,4.59-67.57,13.65-20.67,8.74-39.23,21.26-55.16,37.19-9.33,9.33-17.48,19.57-24.39,30.6h-27.96v-109.14c0-6.46,5.25-11.71,11.71-11.71h98.23c32.22,0,58.43-26.21,58.43-58.43v-2.01c0-32.22-26.21-58.43-58.43-58.43H123.29c-32.93,0-63.89,12.82-87.18,36.11C12.82,454.97,0,485.94,0,518.87v137.06c0,27.34,10.65,53.04,29.98,72.38,19.31,19.31,44.98,29.95,72.28,29.98l14.6,.11v90.21c0,51.94,42.26,94.2,94.2,94.2h206.82v.03h15.15s139.32,.05,139.32,.05h264.61s0,0,0,0h249.04v-87.72c0-24.11-9.39-46.78-26.45-63.82-17.04-17.03-39.69-26.41-63.78-26.41Zm-893.41-53.37c-30.68,0-55.64-24.96-55.64-55.64v-137.06c0-42.22,34.35-76.57,76.57-76.57h101.99c6.46,0,11.71,5.25,11.71,11.71v2.01c0,6.46-5.25,11.71-11.71,11.71H127.05c-32.22,0-58.43,26.21-58.43,58.43v123.94c0,17.6,14.32,31.92,31.92,31.92h22.31c-2.63,9.69-4.39,19.6-5.3,29.66l-15.04-.11h-.17Zm925.35,173.02h-84.49c4.6-11.09,7.15-23.25,7.15-35.99v-25.35l45.39-.03h.02c8.53,0,16.55,3.32,22.58,9.35,6.04,6.03,9.36,14.06,9.36,22.59v29.43Z"/>
      </g>
    </g>
  </g>
</svg>