<?xml version="1.0" encoding="UTF-8"?>
<svg id="Layer_2" data-name="Layer 2" xmlns="http://www.w3.org/2000/svg" viewBox="0 0 1500.64 472.53">
  <defs>
    <style>
      .cls-1 {
        fill: #fff;
      }
    </style>
  </defs>
  <g id="Layer_2-2" data-name="Layer 2">
    <g>
      <path class="cls-1" d="M89.1,463.3H0V0H85.92l191.56,295.93V0h88.78V463.3h-84L89.1,158.46V463.3Z"/>
      <path class="cls-1" d="M420.34,286.7c0-24.61,4.5-47.99,13.52-70.16,9.01-22.16,22.12-41.84,39.3-59.03,17.61-17.61,37.44-31.13,59.5-40.57,22.06-9.44,44.97-14.16,68.73-14.16,25.24,0,48.53,4.19,69.85,12.57,21.32,8.38,40.89,20.95,58.71,37.71,18.24,17.61,32.35,37.92,42.32,60.94,9.97,23.02,14.96,46.62,14.96,70.8,0,26.73-4.35,51.13-13.05,73.19-8.7,22.07-21.75,42-39.14,59.82-17.4,18.03-37.23,31.66-59.5,40.89-22.27,9.23-46.46,13.84-72.55,13.84s-50.28-4.67-71.91-14c-21.64-9.33-41.37-23.33-59.19-42-16.97-18.24-29.81-38.34-38.5-60.3-8.7-21.96-13.05-45.13-13.05-69.53Zm84.01-.64c0,32.46,8.91,58.18,26.73,77.16,17.82,18.99,42,28.48,72.55,28.48s54.14-9.71,72.07-29.12c17.92-19.41,26.89-45.55,26.89-78.44,0-29.48-9.39-53.72-28.16-72.71-18.77-18.98-42.38-28.48-70.8-28.48s-53.14,9.6-71.6,28.8c-18.46,19.2-27.68,43.97-27.68,74.3Z"/>
      <path class="cls-1" d="M990.56,463.3h-63.96L793.59,113.28h86.87l81.46,232.6,84-232.6h84.64l-140.01,350.02Z"/>
      <path class="cls-1" d="M1133.75,286.7c0-24.61,4.5-47.99,13.52-70.16,9.01-22.16,22.12-41.84,39.3-59.03,17.61-17.61,37.44-31.13,59.5-40.57,22.06-9.44,44.97-14.16,68.73-14.16,25.24,0,48.53,4.19,69.85,12.57,21.32,8.38,40.89,20.95,58.71,37.71,18.24,17.61,32.35,37.92,42.32,60.94,9.97,23.02,14.96,46.62,14.96,70.8,0,26.73-4.35,51.13-13.05,73.19-8.7,22.07-21.75,42-39.14,59.82-17.4,18.03-37.23,31.66-59.5,40.89-22.27,9.23-46.46,13.84-72.55,13.84s-50.28-4.67-71.91-14c-21.64-9.33-41.37-23.33-59.19-42-16.97-18.24-29.81-38.34-38.5-60.3-8.7-21.96-13.05-45.13-13.05-69.53Zm84.01-.64c0,32.46,8.91,58.18,26.73,77.16,17.82,18.99,42,28.48,72.55,28.48s54.14-9.71,72.07-29.12c17.92-19.41,26.89-45.55,26.89-78.44,0-29.48-9.39-53.72-28.16-72.71-18.77-18.98-42.38-28.48-70.8-28.48s-53.14,9.6-71.6,28.8c-18.46,19.2-27.68,43.97-27.68,74.3Z"/>
    </g>
  </g>
</svg>