<?xml version="1.0" encoding="UTF-8"?>
<svg id="Layer_2" data-name="Layer 2" xmlns="http://www.w3.org/2000/svg" viewBox="0 0 4157.63 2038">
  <g id="Layer_2-2" data-name="Layer 2">
    <g>
      <polygon points="3049.13 858.59 3180.13 858.59 3180.13 110.43 2987.14 110.43 2469.72 731.33 2570.36 815.19 3048.49 241.43 3049.13 241.43 3049.13 858.59"/>
      <rect x="1968.25" y="110.15" width="131" height="648.89"/>
      <rect x="3050.26" y="1486.95" width="131" height="199.8"/>
      <rect x="2934.43" y="1354.81" width="448.67" height="95"/>
      <rect x="2934.43" y="1203.79" width="448.67" height="95"/>
      <rect x="1652.28" y="1354.81" width="219.7" height="95"/>
      <path d="M1652.28,1203.79v95s185.47,0,185.47,0c-25.01-27.79-43.43-60.09-54.46-95h-131.01Z"/>
      <path d="M2713.87,1081.01v3.1s1.03,0,1.03,0c-.33-1.04-.67-2.07-1.03-3.1Z"/>
      <path d="M1801.22,1125.05c0,75.57,36.18,145.59,100.36,190.25,25.96,18.06,55.57,30.35,86.7,35.97,78.73,14.2,155.54-11.07,209.22-67.06,41.27-43.03,64.21-100.69,63.92-160.31-.07-13.52-1.29-26.87-3.64-39.91h101.91c-2.41,13.42-3.64,27.15-3.64,41.07,0,75.59,36.2,145.64,100.42,190.29,26.06,18.12,55.8,30.42,87.04,36,79.08,14.12,156.15-11.56,209.79-68.15,40.8-43.05,63.35-100.48,62.93-159.8-.09-13.31-1.31-26.44-3.6-39.28h422.92s29.35,47.74,29.35,47.74l111.6,.1-87.85-142.84h-516.8c-6.91-9.4-14.59-18.35-23-26.76-43.46-43.46-101.24-67.4-162.71-67.4-61.46,0-119.24,23.94-162.7,67.4-8.37,8.37-16.02,17.27-22.9,26.63h-183.62c-6.88-9.36-14.53-18.26-22.9-26.63-51.59-51.59-123.36-75.68-197.52-64.86-36.78,5.37-71.73,19.85-101.52,42.07-60.06,44.79-93.76,112.55-93.76,185.49Zm649.86-2.85c1.51-72.69,61.08-131.56,133.78-132.24,59.64-.56,110.58,37.73,129.01,91.05,.36,1.03,.7,2.06,1.03,3.1,7.18,22.5,8.59,47.52,2.55,73.42-11.09,47.53-47.62,85.36-94.81,97.81-91.11,24.04-173.38-45.41-171.56-133.14Zm-554.83,5.9c-1.7-76.89,61.2-139.81,138.09-138.11,71.95,1.58,130.46,60.08,132.04,132.04,1.69,76.9-61.22,139.8-138.11,138.09-71.94-1.59-130.43-60.08-132.02-132.02Z"/>
      <polygon points="2304.69 1444.26 2388.28 1299.48 2221.1 1299.48 2304.69 1444.26"/>
      <path d="M2201.79,2037.16l941.83-.12-.02-131-810.81,.1v-66.16c0-19.18,7.47-37.2,21.03-50.76,13.56-13.55,31.58-21.02,50.75-21.02h.02s490.15,.15,490.15,.15l.04-131-490.15-.15h-.06c-54.15,0-105.06,21.08-143.36,59.37-38.31,38.3-59.42,89.23-59.42,143.41v197.18Z"/>
      <path d="M2694.92,2038l.31-131-546.81-1.31-512.09-125.77h-229.11v-66.13c0-19.18,7.47-37.21,21.04-50.77,13.56-13.55,31.58-21.01,50.74-21.01h.04s236.44,.11,236.44,.11l303.43,84.17,35.01-126.23-320.58-88.92-254.23-.12h-.12c-54.13,0-105.04,21.08-143.33,59.35-38.33,38.3-59.43,89.24-59.43,143.43v197.13s344.26,0,344.26,0l511.93,125.74,562.5,1.35Z"/>
      <path d="M2149.09,2036.66h1241.69c40.2,0,78.6-12.54,111.05-36.27,8.33-6.09,16.07-12.77,23.19-20,24.81,34.08,65.01,56.27,110.3,56.27h117.14c104.49,0,189.5-85.01,189.5-189.5v-770.02c0-65.78-12.9-129.64-38.34-189.78-24.56-58.06-59.7-110.19-104.45-154.94-44.75-44.75-96.88-79.89-154.94-104.45-60.14-25.44-124-38.34-189.78-38.34h-190s0,131,0,131h190c196.58,0,356.51,159.93,356.51,356.51v770.02c0,32.26-26.25,58.5-58.5,58.5h-117.14c-2.96,0-5.36-2.41-5.36-5.36v-263.47c0-33.44-25.06-61.49-58.29-65.24-33.24-3.74-63.91,18.01-71.36,50.62l-55.8,245.78c-8.18,22.63-29.49,37.67-53.73,37.67h-1241.69c-14.5,0-28.09-5.68-38.29-15.98-10.19-10.31-15.72-23.97-15.56-38.46l4-362-130.99-1.45-4,362c-.55,49.76,18.42,96.65,53.41,132.03,34.99,35.38,81.67,54.87,131.43,54.87Z"/>
      <path d="M3733.69,548.55v41.67h-295.95s0,75.17,0,75.17l366.17,181.83c103.15,0,186.78-83.62,186.78-186.78v-205.44c0-90.27-73.18-163.45-163.45-163.45h-143.33v-34.55h342.13c36.34,0,69.23-14.73,93.05-38.54,23.81-23.81,38.54-56.71,38.54-93.04C4157.63,56.15,4101.47,0,4032.21,0h-463.47c-78.33,0-141.83,63.5-141.83,141.83V419.16c0,71.46,57.92,129.39,129.38,129.39h177.4Zm96,95.89v-149.22c0-23.53-19.15-42.67-42.67-42.67h-225.39c-21.35,0-38.72-17.37-38.72-38.72V141.83c0-25.27,20.56-45.83,45.83-45.83h459.97c18.15,0,32.92,14.76,32.92,32.91s-14.4,32.09-32.09,32.09h-395.02c-25.7,0-46.61,20.91-46.61,46.61v136c0,24.23,19.71,43.94,43.94,43.94h176.56c47.57,0,86.28,38.7,86.28,86.28v178.61c0,53.32-42.46,96.9-95.34,98.72l-174.52-64.94h163.08c23.03,0,41.78-18.74,41.78-41.78Z"/>
    </g>
    <g>
      <path d="M0,1531.66c0,243.88,197.7,441.59,441.58,441.59,243.88,0,441.59-197.71,441.59-441.59,0-243.88-197.71-441.59-441.59-441.59C197.7,1090.07,0,1287.78,0,1531.66Zm168.99-255.79c40.2,10.04,75.54,29.41,106.26,57.11,18.95,17.09,35.23,36.44,48.67,60.02-100.26,13.26-186.04,54.59-260.02,125.15,2.72-93.35,33.38-172.5,93.46-239.99,2.14-2.4,8.07-3.18,11.63-2.29Zm463.08,192.38c-2.87-2-5.04-6.51-5.58-10.15-17.62-117.39-73.3-212.89-164.96-287.8-5.16-4.22-10.4-8.34-16.7-13.38,239.76,7.76,407.12,249.73,332.36,474.1-1.21-1.27-1.82-1.68-2.13-2.26-34.75-65.01-82.41-118.46-142.99-160.51Zm-215.44,424.55s74.56-40,141.34-141.33c66.77-101.33,66.66-184,66.66-184,0,0,25.67,15.11,60.34,60.44,34.66,45.34,63.11,111.12,63.11,111.12,0,0-34.67,65.77-139.56,121.77-104.89,56-191.89,32-191.89,32Zm-180.76-59.7c131.11-65.27,205.4-166.59,205.38-311.82-.01-145.31-74.31-246.8-204.95-311.64,19.54-9.43,37.87-18.01,55.94-27.09,9.59-4.82,18.1-4.33,28.19-.16,157.47,65.03,250.19,226.21,222.89,394.25-22.28,137.11-100.49,231.84-228.6,285.21-4.73,1.97-11.71,1.99-16.4,0-20.51-8.74-40.57-18.55-62.45-28.75Zm-150.57-213.48c67.74-88.34,157.35-136.34,268.39-146.48,6.07,18.23,7.34,48.08,3.71,79.87-11.5,100.79-90.05,189.92-188.21,213.99-6.27,1.54-9.84,.35-14.01-4.44-32.52-37.34-56.63-79.39-72.69-126.21-2.28-6.65-1.41-11.23,2.81-16.73Z"/>
      <path d="M406.3,1972.03h661.57c53.17,0,96.43-43.26,96.43-96.43v-61.8c0-53.17-43.26-96.43-96.43-96.43h-86.95s0,76,0,76h86.95c11.27,0,20.43,9.17,20.43,20.43v61.8c0,11.27-9.17,20.43-20.43,20.43H406.3s0,76,0,76Z"/>
    </g>
  </g>
</svg>